<?xml version="1.0" encoding="utf-8"?>
<svg xmlns="http://www.w3.org/2000/svg">
<symbol id="cancel" viewBox="0 0 48 48"><path d="m28.6 24 18-18c1.3-1.3 1.3-3.3 0-4.6S43.3.1 42 1.4l-18 18-18-18C4.7.1 2.7.1 1.4 1.4.2 2.7.2 4.7 1.4 6l18 18-18 18c-1.3 1.3-1.3 3.3 0 4.6.6.6 1.5.9 2.3.9s1.7-.3 2.3-.9l18-18 18 18c.6.6 1.5.9 2.3.9s1.7-.3 2.3-.9c1.3-1.3 1.3-3.3 0-4.6z"/>
</symbol>
<symbol id="check" viewBox="0 0 511.985 511.985"><path d="M500.088 83.681c-15.841-15.862-41.564-15.852-57.426 0L184.205 342.148 69.332 227.276c-15.862-15.862-41.574-15.862-57.436 0s-15.862 41.574 0 57.436l143.585 143.585c7.926 7.926 18.319 11.899 28.713 11.899s20.797-3.963 28.723-11.899l287.171-287.181c15.862-15.851 15.862-41.574 0-57.435"/>
</symbol>
<symbol id="edit" viewBox="0 0 512 511"><path d="M405.332 256.484c-11.797 0-21.332 9.559-21.332 21.332v170.668c0 11.754-9.559 21.332-21.332 21.332H64c-11.777 0-21.332-9.578-21.332-21.332V149.816c0-11.754 9.555-21.332 21.332-21.332h170.668c11.797 0 21.332-9.558 21.332-21.332 0-11.777-9.535-21.336-21.332-21.336H64c-35.285 0-64 28.715-64 64v298.668c0 35.286 28.715 64 64 64h298.668c35.285 0 64-28.714 64-64V277.816c0-11.796-9.54-21.332-21.336-21.332m0 0"/><path d="M200.02 237.05a10.8 10.8 0 0 0-2.922 5.438l-15.082 75.438c-.703 3.496.406 7.101 2.922 9.64a10.67 10.67 0 0 0 7.554 3.114c.68 0 1.387-.063 2.09-.211l75.414-15.082c2.09-.43 3.988-1.43 5.461-2.926l168.79-168.79-75.415-75.41zM496.383 16.102c-20.797-20.801-54.633-20.801-75.414 0l-29.524 29.523 75.414 75.414 29.524-29.527C506.453 81.465 512 68.066 512 53.816s-5.547-27.648-15.617-37.714m0 0"/>
</symbol>
<symbol id="gps" viewBox="0 0 384 384"><path d="M192 136c-30.872 0-56 25.12-56 56s25.128 56 56 56 56-25.12 56-56-25.128-56-56-56m0 80c-13.232 0-24-10.768-24-24s10.768-24 24-24 24 10.768 24 24-10.768 24-24 24"/><path d="M368 176h-32.944C327.648 109.368 274.632 56.352 208 48.944V16c0-8.832-7.168-16-16-16s-16 7.168-16 16v32.944C109.368 56.352 56.352 109.368 48.944 176H16c-8.832 0-16 7.168-16 16s7.168 16 16 16h32.944C56.352 274.632 109.368 327.648 176 335.056V368c0 8.832 7.168 16 16 16s16-7.168 16-16v-32.944c66.632-7.408 119.648-60.424 127.056-127.056H368c8.832 0 16-7.168 16-16s-7.168-16-16-16M192 304c-61.76 0-112-50.24-112-112S130.24 80 192 80s112 50.24 112 112-50.24 112-112 112"/>
</symbol>
<symbol id="refresh-arrow" viewBox="0 0 24 24"><path fill="#1e1e1e" d="M16.379 6.207C15.189 5.255 13.743 4.5 12 4.5a7.5 7.5 0 1 0 7.065 10.026c.185-.52.71-.87 1.25-.755l.978.208c.54.114.89.647.725 1.174C20.678 19.411 16.702 22.5 12 22.5 6.201 22.5 1.5 17.799 1.5 12S6.201 1.5 12 1.5c2.783 0 4.952 1.268 6.511 2.575l1.782-1.782A1 1 0 0 1 22 3v5.5a1 1 0 0 1-1 1h-5.5a1 1 0 0 1-.707-1.707z"/>
</symbol>
<symbol id="wind" viewBox="0 0 512 512"><path d="M512 177.3c0 54.4-44.3 98.7-98.7 98.7H100c-11 0-20-9-20-20s9-20 20-20h313.3c32.3 0 58.7-26.3 58.7-58.7s-26.3-58.7-58.7-58.7-58.7 26.3-58.7 58.7-9 20-20 20-20-9-20-20c0-54.4 44.3-98.7 98.7-98.7s98.7 44.3 98.7 98.7"/><path d="M20 197.3h170c54.4 0 98.7-44.3 98.7-98.7S244.4 0 190 0 91.3 44.3 91.3 98.7s9 20 20 20 20-9 20-20c0-32.3 26.3-58.7 58.7-58.7s58.7 26.3 58.7 58.7-26.3 58.7-58.7 58.7H20c-11 0-20 9-20 20s9 20 20 20ZM334.7 314.7H20c-11 0-20 9-20 20s9 20 20 20h314.7c32.3 0 58.7 26.3 58.7 58.7s-26.3 58.7-58.7 58.7c-32.3 0-58.7-26.3-58.7-58.7s-9-20-20-20-20 9-20 20c0 54.4 44.3 98.7 98.7 98.7s98.7-44.3 98.7-98.7-44.3-98.7-98.7-98.7"/>
</symbol></svg>