<svg xmlns="http://www.w3.org/2000/svg" viewBox="0 0 512 512"><path d="M512 177.3c0 54.4-44.3 98.7-98.7 98.7H100c-11 0-20-9-20-20s9-20 20-20h313.3c32.3 0 58.7-26.3 58.7-58.7s-26.3-58.7-58.7-58.7-58.7 26.3-58.7 58.7-9 20-20 20-20-9-20-20c0-54.4 44.3-98.7 98.7-98.7s98.7 44.3 98.7 98.7"/><path d="M20 197.3h170c54.4 0 98.7-44.3 98.7-98.7S244.4 0 190 0 91.3 44.3 91.3 98.7s9 20 20 20 20-9 20-20c0-32.3 26.3-58.7 58.7-58.7s58.7 26.3 58.7 58.7-26.3 58.7-58.7 58.7H20c-11 0-20 9-20 20s9 20 20 20ZM334.7 314.7H20c-11 0-20 9-20 20s9 20 20 20h314.7c32.3 0 58.7 26.3 58.7 58.7s-26.3 58.7-58.7 58.7c-32.3 0-58.7-26.3-58.7-58.7s-9-20-20-20-20 9-20 20c0 54.4 44.3 98.7 98.7 98.7s98.7-44.3 98.7-98.7-44.3-98.7-98.7-98.7"/></svg>